<svg id="Layer_1" data-name="Layer 1" xmlns="http://www.w3.org/2000/svg" viewBox="0 0 122.88 122.88"><defs><style>.cls-1{fill:#bd081c;}.cls-1,.cls-2{fill-rule:evenodd;}.cls-2{fill:#fff;}</style></defs><title>pinterest-square-color</title><path class="cls-1" d="M25.2,0H97.68a25.27,25.27,0,0,1,25.2,25.2V97.68a25.27,25.27,0,0,1-25.2,25.2H25.2A25.27,25.27,0,0,1,0,97.68V25.2A25.27,25.27,0,0,1,25.2,0Z"/><path class="cls-2" d="M44.87,99.64A29.73,29.73,0,0,0,53.44,85l2.91-11.1c1.51,2.92,6,5.37,10.68,5.37,14.08,0,24.21-12.93,24.21-29,0-15.43-12.58-27-28.77-27-20.15,0-30.83,13.53-30.83,28.25,0,6.83,3.64,15.36,9.47,18.06.87.44,1.35.23,1.55-.64.14-.67.94-3.81,1.31-5.3a1.39,1.39,0,0,0-.32-1.35,18.17,18.17,0,0,1-3.48-10.64c0-10.29,7.79-20.26,21.06-20.26,11.47,0,19.49,7.79,19.49,19,0,12.63-6.37,21.39-14.67,21.39-4.59,0-8-3.78-6.9-8.44C60.48,57.72,63,51.73,63,47.74c0-3.57-1.9-6.55-5.91-6.55-4.7,0-8.44,4.83-8.44,11.34a17,17,0,0,0,1.38,6.93S45.42,79,44.57,82.66c-.94,4-.58,9.69-.16,13.39l.41,3.62,0,0Z"/></svg>